<svg width="32" height="32" viewBox="0 0 32 32" fill="none" xmlns="http://www.w3.org/2000/svg">
<circle cx="16" cy="16" r="16" fill="#F7F7F7"/>
<path d="M26.0001 16.2399C26.0001 15.5377 25.9385 14.8711 25.8329 14.2222H15.8911V18.2311H21.5835C21.3283 19.5466 20.5805 20.6577 19.4719 21.4133V24.0799H22.868C24.8563 22.2222 26.0001 19.4844 26.0001 16.2399Z" fill="#4285F4"/>
<path d="M15.891 26.6668C18.7416 26.6668 21.1258 25.7068 22.8679 24.0801L19.4718 21.4134C18.5216 22.0534 17.3163 22.4445 15.891 22.4445C13.1372 22.4445 10.8057 20.569 9.96989 18.0356H6.46826V20.7823C8.20148 24.2668 11.7647 26.6668 15.891 26.6668Z" fill="#34A853"/>
<path d="M9.97008 18.0356C9.75013 17.3956 9.63575 16.7111 9.63575 16C9.63575 15.2889 9.75893 14.6044 9.97008 13.9644V11.2178H6.46845C5.74701 12.6578 5.3335 14.2756 5.3335 16C5.3335 17.7244 5.74701 19.3422 6.46845 20.7822L9.97008 18.0356Z" fill="#FBBC05"/>
<path d="M15.891 9.55572C17.4483 9.55572 18.8383 10.0979 19.9381 11.1557L22.947 8.11572C21.1258 6.39127 18.7416 5.3335 15.891 5.3335C11.7647 5.3335 8.20148 7.7335 6.46826 11.2179L9.96989 13.9646C10.8057 11.4313 13.1372 9.55572 15.891 9.55572Z" fill="#EA4335"/>
</svg>
